<?xml version="1.0" encoding="utf-8"?>
<!-- Generator: Adobe Illustrator 22.0.1, SVG Export Plug-In . SVG Version: 6.00 Build 0)  -->
<svg version="1.1" id="Layer_1" xmlns="http://www.w3.org/2000/svg" xmlns:xlink="http://www.w3.org/1999/xlink" x="0px" y="0px"
	 viewBox="0 0 346.8 346.8" style="enable-background:new 0 0 346.8 346.8;" xml:space="preserve">
<style type="text/css">
	.st0{opacity:0.7;fill:#0C2342;}
	.st1{fill:#0C2342;}
</style>
<g>
	<path class="st0" d="M183.6,127.1c1.1,8.6,6.3,12.5,6.5,12.7c1.9,1.4,2.4,4,1,6c-0.8,1.2-2.2,1.8-3.5,1.8c-0.8,0-1.7-0.3-2.4-0.8
		c-0.4-0.3-9-6.6-10.2-19.9c-0.8,0-1.5,0-2.3,0c-7,0-13.3,0.3-19.2,0.9c1.2,8.2,6.2,11.9,6.5,12.1c1.9,1.4,2.4,4,1,6
		c-0.8,1.2-2.2,1.8-3.5,1.8c-0.8,0-1.7-0.3-2.4-0.8c-0.4-0.3-8.3-6-10-18.1c-24.1,3.5-36.4,10.9-36.4,14.6
		c0,4.9,21.8,16.4,64.1,16.4s64.1-11.5,64.1-16.4C236.8,138.8,218.7,128.9,183.6,127.1z"/>
	<path class="st1" d="M252.1,168.5h-2.4v45.3c0,0.5-0.1,1.1-0.1,1.6h2.5c12.9,0,23.4-10.5,23.4-23.4
		C275.5,179,265,168.5,252.1,168.5z"/>
	<path class="st1" d="M173.4,0C77.6,0,0,77.6,0,173.4c0,95.8,77.6,173.4,173.4,173.4c95.8,0,173.4-77.6,173.4-173.4
		C346.8,77.6,269.2,0,173.4,0z M252.1,228.2h-3.9c-6.8,35.5-38,62.4-75.5,62.4c-42.4,0-76.9-34.5-76.9-76.9v-70.5
		c0-15.2,22.7-24.1,49.7-27.6c1.7-8,5.7-13.2,9.3-17.9c4-5.2,7.2-9.3,7.2-16.7c0-11.2-7.2-17.3-7.3-17.3c-1.8-1.5-2.1-4.2-0.6-6
		c1.5-1.8,4.2-2.1,6-0.6c0.4,0.4,10.4,8.7,10.4,23.9c0,10.3-4.8,16.5-9,22c-2.7,3.5-5.3,7.1-6.8,11.7c5.9-0.5,12-0.7,17.9-0.7
		c1.1,0,2.2,0,3.4,0.1c1.9-7.1,5.5-11.9,8.9-16.2c4-5.2,7.2-9.3,7.2-16.7c0-11.2-7.2-17.3-7.3-17.3c-1.8-1.5-2.1-4.2-0.6-6
		c1.5-1.8,4.2-2.1,6-0.6c0.4,0.4,10.4,8.7,10.4,23.9c0,10.3-4.8,16.5-9,22c-2.7,3.4-5.1,6.9-6.7,11.3c33,1.8,64.6,11,64.6,28.9v12.4
		h2.4c20,0,36.3,16.3,36.3,36.3C288.4,211.9,272.1,228.2,252.1,228.2z"/>
</g>
</svg>
